# xmcd
#
# Track frame offsets:
# 150
# 13835
# 27862
# 41292
# 54040
# 67965
# 80817
# 93040
# 106782
# 120612
# 134012
# 148490
# 162517
# 175740
# 188327
# 199612
# 213280
# 226070
# 239545
# 253462
#
# Disc length: 3558 seconds
#
#
# Revision: 0
# Processed by: cddbd v1.5PL3 Copyright (c) Steve Scherf et al.
# Submitted via: FreeRIP 2.70 
#
DISCID=0e0de414
DTITLE=Sonny Boy Williamson - Sonny Boy Williamson - American  Blues Legend
DYEAR=1999
DGENRE=Blues
TTITLE0=Good Morning Little School Girl
TTITLE1=Blue Bird Blues
TTITLE2=Sugar Mama Blues
TTITLE3=Black Gal Blues
TTITLE4=Million Year Blues
TTITLE5=Sonny Boy's Jump
TTITLE6=Elevator Woman
TTITLE7=Early In The Morning
TTITLE8=The Big Boat
TTITLE9=Stop Breaking Down
TTITLE10=You're An Old Lady
TTITLE11=Sonny Boy's Cold Chills
TTITLE12=Hoodoo Hoodoo
TTITLE13=Shake The Boogie
TTITLE14=Polly Put The Kettle On
TTITLE15=Sugar Gal
TTITLE16=Alchohol Blues
TTITLE17=Blues about My Baby
TTITLE18=Bring Another Half Pint
TTITLE19=Better Cut That Out
EXTD=Charly Blues Masterworks
EXTT0=
EXTT1=
EXTT2=
EXTT3=
EXTT4=
EXTT5=
EXTT6=
EXTT7=
EXTT8=
EXTT9=
EXTT10=
EXTT11=
EXTT12=
EXTT13=
EXTT14=
EXTT15=
EXTT16=
EXTT17=
EXTT18=
EXTT19=
PLAYORDER=
